{
    "asset" : {
        "generator" : "Khronos glTF Blender I/O v1.1.46",
        "version" : "2.0"
    },
    "scene" : 0,
    "scenes" : [
        {
            "name" : "Scene",
            "nodes" : [
                0,
                1,
                2
            ]
        }
    ],
    "nodes" : [
        {
            "name" : "Camera.001",
            "rotation" : [
                0.6659572720527649,
                0.17910178005695343,
                -0.1781606674194336,
                0.7019132971763611
            ],
            "translation" : [
                0.34386321902275085,
                0.23022465407848358,
                0.6574632525444031
            ]
        },
        {
            "mesh" : 0,
            "name" : "Lamp.001",
            "rotation" : [
                0.7071068286895752,
                0,
                0,
                0.7071067094802856
            ],
            "scale" : [
                6,
                8.000000953674316,
                1
            ]
        },
        {
            "mesh" : 1,
            "name" : "Lightbulb.001",
            "rotation" : [
                0.6917465329170227,
                0,
                0,
                0.722140371799469
            ],
            "scale" : [
                6,
                8,
                0.7781620025634766
            ],
            "translation" : [
                0,
                0.3384350538253784,
                0.10298273712396622
            ]
        }
    ],
    "materials" : [
        {
            "alphaMode" : "BLEND",
            "doubleSided" : true,
            "emissiveFactor" : [
                0,
                0,
                0
            ],
            "name" : "None",
            "pbrMetallicRoughness" : {
                "baseColorFactor" : [
                    0.800000011920929,
                    0.800000011920929,
                    0.800000011920929,
                    1
                ],
                "baseColorTexture" : {
                    "index" : 0,
                    "texCoord" : 0
                },
                "metallicFactor" : 0,
                "roughnessFactor" : 1
            }
        },
        {
            "doubleSided" : true,
            "emissiveFactor" : [
                0,
                0,
                0
            ],
            "name" : "Material.002",
            "pbrMetallicRoughness" : {
                "baseColorFactor" : [
                    0,
                    0.019955655559897423,
                    0.8000000715255737,
                    1
                ],
                "metallicFactor" : 0,
                "roughnessFactor" : 0.5
            }
        }
    ],
    "meshes" : [
        {
            "name" : "Cube.003",
            "primitives" : [
                {
                    "attributes" : {
                        "POSITION" : 0,
                        "NORMAL" : 1,
                        "TEXCOORD_0" : 2
                    },
                    "indices" : 3,
                    "material" : 0
                }
            ]
        },
        {
            "name" : "Cube.004",
            "primitives" : [
                {
                    "attributes" : {
                        "POSITION" : 4,
                        "NORMAL" : 5,
                        "TEXCOORD_0" : 6
                    },
                    "indices" : 7,
                    "material" : 1
                }
            ]
        }
    ],
    "textures" : [
        {
            "source" : 0
        }
    ],
    "images" : [
        {
            "bufferView" : 4,
            "mimeType" : "image/png",
            "name" : "lampTex"
        }
    ],
    "accessors" : [
        {
            "bufferView" : 0,
            "componentType" : 5126,
            "count" : 494,
            "max" : [
                0.009999999776482582,
                0.029718229547142982,
                0.009999999776482582
            ],
            "min" : [
                -0.009999999776482582,
                -0.009999999776482582,
                -0.37382006645202637
            ],
            "type" : "VEC3"
        },
        {
            "bufferView" : 1,
            "componentType" : 5126,
            "count" : 494,
            "type" : "VEC3"
        },
        {
            "bufferView" : 2,
            "componentType" : 5126,
            "count" : 494,
            "type" : "VEC2"
        },
        {
            "bufferView" : 3,
            "componentType" : 5123,
            "count" : 612,
            "type" : "SCALAR"
        },
        {
            "bufferView" : 5,
            "componentType" : 5126,
            "count" : 34,
            "max" : [
                0.0020239446312189102,
                0.016001936048269272,
                0.031116768717765808
            ],
            "min" : [
                -0.0020239446312189102,
                -0.016001936048269272,
                -0.031116768717765808
            ],
            "type" : "VEC3"
        },
        {
            "bufferView" : 6,
            "componentType" : 5126,
            "count" : 34,
            "type" : "VEC3"
        },
        {
            "bufferView" : 7,
            "componentType" : 5126,
            "count" : 34,
            "type" : "VEC2"
        },
        {
            "bufferView" : 8,
            "componentType" : 5123,
            "count" : 36,
            "type" : "SCALAR"
        }
    ],
    "bufferViews" : [
        {
            "buffer" : 0,
            "byteLength" : 5928,
            "byteOffset" : 0
        },
        {
            "buffer" : 0,
            "byteLength" : 5928,
            "byteOffset" : 5928
        },
        {
            "buffer" : 0,
            "byteLength" : 3952,
            "byteOffset" : 11856
        },
        {
            "buffer" : 0,
            "byteLength" : 1224,
            "byteOffset" : 15808
        },
        {
            "buffer" : 0,
            "byteLength" : 384581,
            "byteOffset" : 17032
        },
        {
            "buffer" : 0,
            "byteLength" : 408,
            "byteOffset" : 401616
        },
        {
            "buffer" : 0,
            "byteLength" : 408,
            "byteOffset" : 402024
        },
        {
            "buffer" : 0,
            "byteLength" : 272,
            "byteOffset" : 402432
        },
        {
            "buffer" : 0,
            "byteLength" : 72,
            "byteOffset" : 402704
        }
    ],
    "buffers" : [
        {
            "byteLength" : 402776,
            "uri" : "data:application/octet-stream;base64,"
        }
    ]
}
